<svg width="27" height="28" viewBox="0 0 27 28" fill="none" xmlns="http://www.w3.org/2000/svg">
<path d="M2.98023e-08 -1.90735e-06H14.8C16.6133 -1.90735e-06 18.1733 0.119998 19.48 0.359998C20.8133 0.573332 21.8933 0.946665 22.72 1.48C23.5733 1.98666 24.2 2.66666 24.6 3.52C25 4.34667 25.2 5.36 25.2 6.56C25.2 7.94667 24.92 9.08 24.36 9.96C23.8 10.84 23.04 11.52 22.08 12C21.1467 12.48 20.0533 12.7867 18.8 12.92C17.5467 13.0267 16.2133 13.04 14.8 12.96V13.68C16.64 13.5733 18.2667 13.56 19.68 13.64C21.12 13.72 22.3333 13.9867 23.32 14.44C24.3333 14.8933 25.0933 15.5867 25.6 16.52C26.1333 17.4533 26.4 18.72 26.4 20.32C26.4 22.9867 25.5067 24.9333 23.72 26.16C21.96 27.3867 19.12 28 15.2 28H2.98023e-08V-1.90735e-06ZM13.6 11C14.72 11 15.5333 10.7467 16.04 10.24C16.5467 9.73333 16.8 8.90667 16.8 7.76C16.8 6.74667 16.5467 6.02667 16.04 5.6C15.5333 5.14667 14.72 4.92 13.6 4.92H8V11H13.6ZM14 22.72C15.4133 22.72 16.4267 22.4667 17.04 21.96C17.68 21.4533 18 20.6267 18 19.48C18 18.2 17.68 17.28 17.04 16.72C16.4267 16.1333 15.4133 15.84 14 15.84H8V22.72H14Z" fill="#77CEFF"/>
</svg>
