<svg width="24" height="24" viewBox="0 0 24 24" fill="none" xmlns="http://www.w3.org/2000/svg">
<path d="M16.9498 12.0503L18.364 10.636" stroke="#A4A8AF" stroke-width="2" stroke-linecap="round"/>
<path d="M20 17L22 17" stroke="#A4A8AF" stroke-width="2" stroke-linecap="round"/>
<path d="M2 17L4 17" stroke="#A4A8AF" stroke-width="2" stroke-linecap="round"/>
<path d="M5.63608 10.6361L7.05029 12.0503" stroke="#A4A8AF" stroke-width="2" stroke-linecap="round"/>
<path d="M3 21H21" stroke="#A4A8AF" stroke-width="2" stroke-linecap="round"/>
<path d="M15 6L12 3L9 6" stroke="#A4A8AF" stroke-width="2" stroke-linecap="round" stroke-linejoin="round"/>
<path d="M12 3V9.5" stroke="#A4A8AF" stroke-width="2" stroke-linecap="round"/>
<path d="M17 18.625C17 19.2567 16.8646 19.6523 16.6928 19.9138C16.5224 20.1731 16.2603 20.3857 15.8558 20.5553C14.9842 20.9209 13.686 21 12 21C10.314 21 9.01577 20.9209 8.14415 20.5553C7.73975 20.3857 7.47763 20.1731 7.30722 19.9138C7.13537 19.6523 7 19.2567 7 18.625C7 16.1305 9.1768 14 12 14C14.8232 14 17 16.1305 17 18.625Z" stroke="#A4A8AF" stroke-width="2"/>
</svg>
