<svg width="111" height="30" viewBox="0 0 111 30" fill="none" xmlns="http://www.w3.org/2000/svg">
<path d="M2.98023e-08 0.499998H14.8C16.6133 0.499998 18.1733 0.619998 19.48 0.859998C20.8133 1.07333 21.8933 1.44667 22.72 1.98C23.5733 2.48666 24.2 3.16666 24.6 4.02C25 4.84667 25.2 5.86 25.2 7.06C25.2 8.44667 24.92 9.58 24.36 10.46C23.8 11.34 23.04 12.02 22.08 12.5C21.1467 12.98 20.0533 13.2867 18.8 13.42C17.5467 13.5267 16.2133 13.54 14.8 13.46V14.18C16.64 14.0733 18.2667 14.06 19.68 14.14C21.12 14.22 22.3333 14.4867 23.32 14.94C24.3333 15.3933 25.0933 16.0867 25.6 17.02C26.1333 17.9533 26.4 19.22 26.4 20.82C26.4 23.4867 25.5067 25.4333 23.72 26.66C21.96 27.8867 19.12 28.5 15.2 28.5H2.98023e-08V0.499998ZM13.6 11.5C14.72 11.5 15.5333 11.2467 16.04 10.74C16.5467 10.2333 16.8 9.40667 16.8 8.26C16.8 7.24667 16.5467 6.52667 16.04 6.1C15.5333 5.64667 14.72 5.42 13.6 5.42H8V11.5H13.6ZM14 23.22C15.4133 23.22 16.4267 22.9667 17.04 22.46C17.68 21.9533 18 21.1267 18 19.98C18 18.7 17.68 17.78 17.04 17.22C16.4267 16.6333 15.4133 16.34 14 16.34H8V23.22H14ZM29.1406 28.5V6.7H36.3406V11.22H37.1806C37.394 9.7 37.874 8.52667 38.6206 7.7C39.3673 6.87333 40.3273 6.46 41.5006 6.46H43.5406V11.82H40.6206C39.4473 11.82 38.474 12.1933 37.7006 12.94C36.954 13.6867 36.5806 14.7 36.5806 15.98V28.5H29.1406ZM66.1441 21.62C65.9307 22.9533 65.5174 24.1 64.9041 25.06C64.3174 25.9933 63.5574 26.7667 62.6241 27.38C61.6907 27.9667 60.6107 28.3933 59.3841 28.66C58.1841 28.9533 56.8507 29.1 55.3841 29.1C51.8374 29.1 49.1041 28.2067 47.1841 26.42C45.2907 24.6067 44.3441 21.6733 44.3441 17.62C44.3441 15.5933 44.5574 13.86 44.9841 12.42C45.4107 10.9533 46.0641 9.75333 46.9441 8.82C47.8241 7.86 48.9441 7.16667 50.3041 6.74C51.6907 6.28666 53.3441 6.06 55.2641 6.06C57.1841 6.06 58.8241 6.28666 60.1841 6.74C61.5707 7.16667 62.7041 7.86 63.5841 8.82C64.4907 9.75333 65.1574 10.9533 65.5841 12.42C66.0107 13.86 66.2241 15.5933 66.2241 17.62V19.9H51.6241C51.6241 21.4467 51.9307 22.58 52.5441 23.3C53.1574 23.9933 54.1041 24.34 55.3841 24.34C57.3841 24.34 58.5574 23.4333 58.9041 21.62H66.1441ZM58.9441 15.82C58.9441 14.2467 58.6507 13.0467 58.0641 12.22C57.5041 11.3667 56.5841 10.94 55.3041 10.94C54.0241 10.94 53.0907 11.3667 52.5041 12.22C51.9441 13.0467 51.6641 14.2467 51.6641 15.82H58.9441ZM90.1284 21.62C89.9151 22.9533 89.5018 24.1 88.8884 25.06C88.3018 25.9933 87.5418 26.7667 86.6084 27.38C85.6751 27.9667 84.5951 28.3933 83.3684 28.66C82.1684 28.9533 80.8351 29.1 79.3684 29.1C75.8218 29.1 73.0884 28.2067 71.1684 26.42C69.2751 24.6067 68.3284 21.6733 68.3284 17.62C68.3284 15.5933 68.5418 13.86 68.9684 12.42C69.3951 10.9533 70.0484 9.75333 70.9284 8.82C71.8084 7.86 72.9284 7.16667 74.2884 6.74C75.6751 6.28666 77.3284 6.06 79.2484 6.06C81.1684 6.06 82.8084 6.28666 84.1684 6.74C85.5551 7.16667 86.6884 7.86 87.5684 8.82C88.4751 9.75333 89.1418 10.9533 89.5684 12.42C89.9951 13.86 90.2084 15.5933 90.2084 17.62V19.9H75.6084C75.6084 21.4467 75.9151 22.58 76.5284 23.3C77.1418 23.9933 78.0884 24.34 79.3684 24.34C81.3684 24.34 82.5418 23.4333 82.8884 21.62H90.1284ZM82.9284 15.82C82.9284 14.2467 82.6351 13.0467 82.0484 12.22C81.4884 11.3667 80.5684 10.94 79.2884 10.94C78.0084 10.94 77.0751 11.3667 76.4884 12.22C75.9284 13.0467 75.6484 14.2467 75.6484 15.82H82.9284ZM91.7716 23.26C91.7716 22.4067 91.8249 21.6733 91.9316 21.06C92.0649 20.42 92.2782 19.86 92.5716 19.38C92.8916 18.8733 93.3049 18.4067 93.8116 17.98C94.3449 17.5533 95.0116 17.1267 95.8116 16.7L102.172 13.22V12.58H92.1716V6.62H109.772V12.34C109.772 13.3 109.652 14.0867 109.412 14.7C109.172 15.2867 108.825 15.7933 108.372 16.22C107.945 16.6467 107.425 17.0333 106.812 17.38C106.225 17.7267 105.572 18.1267 104.852 18.58L99.3716 21.9V22.5H110.172V28.5H91.7716V23.26Z" fill="#77CEFF"/>
</svg>
